<?xml version="1.0" encoding="UTF-8"?>
<svg width="1200pt" height="1200pt" version="1.1" viewBox="0 0 1200 1200" xmlns="http://www.w3.org/2000/svg">
 <path d="m1200 600c0 214.36-114.36 412.44-300 519.62-185.64 107.18-414.36 107.18-600 0-185.64-107.18-300-305.26-300-519.62s114.36-412.44 300-519.62c185.64-107.18 414.36-107.18 600 0 185.64 107.18 300 305.26 300 519.62" fill="#0f1729"/>
 <path d="m531.01 626.36h-34.223c-0.23828 0-0.44141-0.11719-0.67187-0.13672 2.543 31.316 19.047 58.684 43.203 76.066-5.293-9.7578-8.3047-20.93-8.3047-32.789z" fill="#fff"/>
 <path d="m669 626.36v43.141c0 11.859-3.0117 23.031-8.3047 32.789 24.156-17.383 40.66-44.75 43.203-76.066-0.23438 0.019532-0.43359 0.13672-0.67188 0.13672z" fill="#fff"/>
 <path d="m524.8 540.95c3.1484-3.1484 8.7266-3.1484 11.875 0l19.527 19.531 11.641-11.645-19.523-19.523c-3.2812-3.2812-3.2812-8.5938 0-11.875l19.523-19.531-11.641-11.637-19.527 19.523c-3.2812 3.2812-8.5938 3.2812-11.875 0l-19.523-19.523-11.645 11.637 19.527 19.531c1.5742 1.5742 2.4609 3.707 2.4609 5.9375 0 2.2305-0.88672 4.3633-2.4609 5.9375l-19.527 19.523 11.645 11.645z" fill="#fff"/>
 <path d="m608.4 674.03c0 4.6406-3.7578 8.3984-8.3984 8.3984-4.6367 0-8.3984-3.7539-8.3984-8.3984v-47.668h-43.805v43.141c0 28.781 23.414 52.203 52.195 52.203s52.203-23.418 52.203-52.203v-43.141h-43.801z" fill="#fff"/>
 <path d="m675.2 505.79c-3.2812 3.2812-8.5938 3.2812-11.875 0l-19.523-19.523-11.645 11.637 19.527 19.531c1.5742 1.5742 2.4609 3.707 2.4609 5.9375s-0.88672 4.3633-2.4609 5.9375l-19.527 19.523 11.645 11.645 19.523-19.531c3.1484-3.1484 8.7266-3.1484 11.875 0l19.527 19.531 11.641-11.645-19.523-19.523c-3.2812-3.2812-3.2812-8.5938 0-11.875l19.523-19.531-11.641-11.637z" fill="#fff"/>
 <path d="m600 286.45c-135.02 0-245.49 110.47-245.49 245.48v299.79c0 45.008 36.824 81.828 81.828 81.828s81.828-36.82 81.828-81.828c0 45.008 36.824 81.828 81.828 81.828 45.008 0 81.828-36.82 81.828-81.828 0 45.008 36.82 81.828 81.828 81.828 45.008 0 81.828-36.82 81.828-81.828v-24.426l0.007812-275.36c0-135.02-110.47-245.48-245.49-245.48zm-126.64 262.38c0-2.2305 0.88672-4.3633 2.4609-5.9375l19.527-19.523-19.527-19.531c-1.5742-1.5742-2.4609-3.7148-2.4609-5.9375 0-2.2305 0.88672-4.3633 2.4609-5.9375l23.52-23.508c3.2812-3.2812 8.5938-3.2812 11.875 0l19.523 19.523 19.527-19.523c3.2812-3.2812 8.5938-3.2812 11.875 0l23.512 23.508c3.2812 3.2812 3.2812 8.5938 0 11.875l-19.523 19.531 19.523 19.523c3.2812 3.2812 3.2812 8.5938 0 11.875l-23.512 23.52c-1.5742 1.5742-3.7109 2.4609-5.9375 2.4609s-4.3633-0.88672-5.9375-2.4609l-19.527-19.531-19.523 19.531c-3.1484 3.1484-8.7266 3.1484-11.875 0l-23.52-23.52c-1.5742-1.5742-2.4609-3.707-2.4609-5.9375zm126.64 189.91c-66.734 0-121.03-54.293-121.03-121.03 0-4.6406 3.7578-8.3984 8.3984-8.3984h225.27c4.6367 0 8.3984 3.7539 8.3984 8.3984 0 66.738-54.297 121.03-121.04 121.03zm124.18-195.85c3.2812 3.2812 3.2812 8.5938 0 11.875l-23.512 23.52c-1.5742 1.5742-3.7109 2.4609-5.9375 2.4609s-4.3633-0.88672-5.9375-2.4609l-19.527-19.531-19.523 19.531c-3.1484 3.1484-8.7266 3.1484-11.875 0l-23.52-23.52c-1.5742-1.5742-2.4609-3.707-2.4609-5.9375 0-2.2305 0.88672-4.3633 2.4609-5.9375l19.527-19.523-19.527-19.531c-1.5742-1.5742-2.4609-3.7148-2.4609-5.9375 0-2.2305 0.88672-4.3633 2.4609-5.9375l23.52-23.508c3.2812-3.2812 8.5938-3.2812 11.875 0l19.523 19.523 19.527-19.523c3.2812-3.2812 8.5938-3.2812 11.875 0l23.512 23.508c3.2812 3.2812 3.2812 8.5938 0 11.875l-19.523 19.531z" fill="#fff"/>
</svg>
