<?xml version="1.0" encoding="UTF-8"?>
<svg width="1200pt" height="1200pt" version="1.1" viewBox="0 0 1200 1200" xmlns="http://www.w3.org/2000/svg">
 <path d="m1200 600c0 214.36-114.36 412.44-300 519.62-185.64 107.18-414.36 107.18-600 0-185.64-107.18-300-305.26-300-519.62s114.36-412.44 300-519.62c185.64-107.18 414.36-107.18 600 0 185.64 107.18 300 305.26 300 519.62" fill="#0f1729"/>
 <path d="m645.61 677.49c0 36.332-20.422 65.789-45.609 65.789-25.191 0-45.613-29.457-45.613-65.789 0-36.336 20.422-65.789 45.613-65.789 25.188 0 45.609 29.453 45.609 65.789" fill="#fff"/>
 <path d="m667.65 516.34c-7.6719 0-14.285 8.4609-16.266 19.551 4.4336-4.4297 10.023-7.1602 16.266-7.1602 6.2461 0 11.836 2.7344 16.27 7.1602-1.9805-11.09-8.5938-19.551-16.27-19.551z" fill="#fff"/>
 <path d="m667.65 545.52c-4.3359 0-9.1914 6.7109-9.1914 15.691 0 1.2617 0.23438 2.4609 0.42188 3.6758 2.582 2.5039 5.5781 4.0312 8.7695 4.0312 3.1953 0 6.1914-1.5273 8.7734-4.0312 0.1875-1.2148 0.42188-2.4219 0.42188-3.6758 0-8.9766-4.8555-15.691-9.1953-15.691z" fill="#fff"/>
 <path d="m532.36 516.34c-7.6719 0-14.285 8.4609-16.266 19.551 4.4336-4.4297 10.023-7.1602 16.266-7.1602 6.2461 0 11.836 2.7344 16.27 7.1641-1.9805-11.09-8.5938-19.555-16.27-19.555z" fill="#fff"/>
 <path d="m600 286.45c-135.02 0-245.49 110.47-245.49 245.48v299.79c0 45.008 36.824 81.828 81.828 81.828s81.828-36.82 81.828-81.828c0 45.008 36.824 81.828 81.828 81.828 45.008 0 81.828-36.82 81.828-81.828 0 45.008 36.82 81.828 81.828 81.828 45.008 0 81.828-36.82 81.828-81.828v-24.426l0.007812-275.36c0-135.02-110.47-245.48-245.49-245.48zm-107.3 217.28c-3.4805 0-6.7344-2.1797-7.9375-5.6562-1.5117-4.3828 0.8125-9.1641 5.1953-10.68l79.316-27.426c4.3594-1.5039 9.1602 0.80859 10.68 5.1953 1.5117 4.3828-0.8125 9.1641-5.1953 10.68l-79.316 27.426c-0.90625 0.30859-1.832 0.46094-2.7422 0.46094zm5.9336 38.902c0-24.16 14.812-43.086 33.723-43.086 18.914 0 33.727 18.926 33.727 43.086 0 24.156-14.812 43.082-33.727 43.082-18.91 0.003906-33.723-18.922-33.723-43.082zm101.37 217.44c-34.406 0-62.402-37.047-62.402-82.582 0-45.535 27.996-82.582 62.402-82.582 34.41 0 62.406 37.047 62.406 82.582 0 45.535-27.992 82.582-62.406 82.582zm67.648-174.35c-18.91 0-33.723-18.926-33.723-43.082 0-24.16 14.812-43.086 33.723-43.086 18.914 0 33.727 18.926 33.727 43.086 0 24.156-14.812 43.082-33.727 43.082zm47.598-87.648c-1.2031 3.4766-4.457 5.6562-7.9375 5.6562-0.91016 0-1.8359-0.15234-2.7422-0.46484l-79.316-27.426c-4.3828-1.5156-6.707-6.2969-5.1953-10.68 1.5117-4.3867 6.3086-6.6992 10.68-5.1953l79.316 27.426c4.3828 1.5195 6.707 6.3008 5.1953 10.684z" fill="#fff"/>
 <path d="m532.36 545.52c-4.3359 0-9.1914 6.7109-9.1914 15.691 0 1.2578 0.23438 2.4609 0.41797 3.6758 2.582 2.5039 5.5781 4.0352 8.7734 4.0352 3.1953 0 6.1914-1.5273 8.7734-4.0312 0.1875-1.2109 0.41797-2.4141 0.41797-3.6758 0-8.9805-4.8516-15.695-9.1914-15.695z" fill="#fff"/>
</svg>
