<?xml version="1.0" encoding="UTF-8"?>
<svg width="1200pt" height="1200pt" version="1.1" viewBox="0 0 1200 1200" xmlns="http://www.w3.org/2000/svg">
 <path d="m1200 600c0 214.36-114.36 412.44-300 519.62-185.64 107.18-414.36 107.18-600 0-185.64-107.18-300-305.26-300-519.62s114.36-412.44 300-519.62c185.64-107.18 414.36-107.18 600 0 185.64 107.18 300 305.26 300 519.62" fill="#0f1729"/>
 <path d="m531.66 507.52c-7.6719 0-14.281 8.457-16.262 19.547 4.4336-4.4258 10.02-7.1562 16.262-7.1562 6.2461 0 11.836 2.7344 16.273 7.168-1.9844-11.098-8.6016-19.559-16.273-19.559z" fill="#fff"/>
 <path d="m531.66 536.7c-4.3359 0-9.1914 6.7109-9.1914 15.691 0 1.25 0.23438 2.457 0.42188 3.6758 2.582 2.5039 5.5742 4.0352 8.7695 4.0352s6.1914-1.5312 8.7734-4.0352c0.1875-1.207 0.41797-2.3984 0.41797-3.6719 0-8.9844-4.8555-15.695-9.1914-15.695z" fill="#fff"/>
 <path d="m600 286.45c-135.02 0-245.49 110.47-245.49 245.48v299.79c0 45.008 36.824 81.828 81.828 81.828s81.828-36.82 81.828-81.828c0 45.008 36.824 81.828 81.828 81.828 45.008 0 81.828-36.82 81.828-81.828 0 45.008 36.82 81.828 81.828 81.828 45.008 0 81.828-36.82 81.828-81.828v-24.426l0.007812-275.36c0-135.02-110.47-245.48-245.49-245.48zm-120.7 215.01c8.6328-24.148 29.184-39.75 52.348-39.75 23.172 0 43.723 15.602 52.355 39.75 1.5664 4.3672-0.71484 9.1719-5.0742 10.73-0.93359 0.33594-1.8945 0.49609-2.8281 0.49609-3.4453 0-6.6836-2.1406-7.9062-5.5742-6.2148-17.375-20.559-28.605-36.547-28.605-15.98 0-30.324 11.23-36.539 28.605-1.5508 4.3711-6.3477 6.668-10.734 5.0781-4.3594-1.5586-6.6406-6.3633-5.0742-10.73zm86.078 32.344c0 24.16-14.816 43.086-33.727 43.086s-33.719-18.926-33.719-43.086c0-24.156 14.809-43.082 33.719-43.082 18.906-0.003906 33.727 18.922 33.727 43.082zm34.617 204.94c-66.738 0-121.03-54.297-121.03-121.04 0-4.6367 3.7539-8.3984 8.3984-8.3984 4.6406 0 8.3984 3.7578 8.3984 8.3984 0 57.477 46.766 104.24 104.24 104.24s104.24-46.766 104.24-104.24c0-4.6367 3.7539-8.3984 8.3984-8.3984 4.6406 0 8.3984 3.7578 8.3984 8.3984-0.003906 66.738-54.297 121.04-121.04 121.04zm95.328-188.98c3.7812 2.6914 4.6562 7.9336 1.9688 11.711-1.6406 2.3008-4.2227 3.5273-6.8477 3.5273-1.6797 0-3.3867-0.50391-4.8633-1.5586l-39.723-28.301c-2.9766-2.1211-4.2383-5.918-3.125-9.3984 1.1055-3.4766 4.3477-5.8398 7.9961-5.8398h48.117c4.6406 0 8.3984 3.7578 8.3984 8.3984 0 4.6367-3.7539 8.3984-8.3984 8.3984h-21.859zm26.746-36.18c-0.93359 0.33594-1.8945 0.49609-2.8281 0.49609-3.4453 0-6.6836-2.1406-7.9062-5.5742-6.2148-17.375-20.559-28.605-36.547-28.605-15.98 0-30.324 11.23-36.547 28.609-1.5664 4.3711-6.3867 6.6367-10.734 5.0742-4.3711-1.5625-6.6406-6.3672-5.0742-10.734 8.6445-24.145 29.191-39.746 52.355-39.746 23.172 0 43.723 15.602 52.355 39.75 1.5703 4.3672-0.71094 9.1719-5.0742 10.73z" fill="#fff"/>
</svg>
