<?xml version="1.0" encoding="UTF-8"?>
<svg width="1200pt" height="1200pt" version="1.1" viewBox="0 0 1200 1200" xmlns="http://www.w3.org/2000/svg">
 <path d="m1200 600c0 214.36-114.36 412.44-300 519.62-185.64 107.18-414.36 107.18-600 0-185.64-107.18-300-305.26-300-519.62s114.36-412.44 300-519.62c185.64-107.18 414.36-107.18 600 0 185.64 107.18 300 305.26 300 519.62" fill="#0f1729"/>
 <path d="m600 241.04c-150.02 0-272.06 117.76-272.06 262.53v387.89c0 37.242 30.152 67.523 67.223 67.523 37.059 0 67.207-30.281 67.207-67.523v-29.996c0-19.496 15.781-35.375 35.195-35.375 19.414 0 35.207 15.879 35.207 35.375v29.996c0 37.242 30.152 67.523 67.227 67.523s67.227-30.281 67.227-67.523v-29.996c0-19.496 15.793-35.375 35.188-35.375 19.414 0 35.207 15.879 35.207 35.375v29.996c0 37.242 30.152 67.523 67.215 67.523 37.07-0.011718 67.223-30.293 67.223-67.527v-387.88c0-144.77-122.03-262.53-272.06-262.53zm-173.37 273.24c-8.8359 0-16-7.2031-16-16.074 0-8.8711 7.1641-16.074 16-16.074h112.03c8.8359 0 16 7.1953 16 16.074 0 1.3438-0.21094 2.6367-0.51953 3.8984-1.9805 24.062-22.016 42.984-46.484 42.984-20.148 0-37.266-12.855-43.801-30.809zm306.72 197.18c0 8.8711-7.1641 16.074-16 16.074-4.957 0-9.3711-2.2656-12.324-5.8281-27.039 23.676-67.781 34.656-105.32 34.656-43.551-0.015625-80.621-12.727-104.93-34.445-2.9414 3.4297-7.293 5.6055-12.145 5.6055-8.8359 0-16.008-7.2031-16.008-16.074v-37.508c0-8.0469 5.9414-14.871 13.891-15.914 8.125-1.1094 15.461 3.9453 17.555 11.723 10.172 37.629 58.379 54.449 101.64 54.465 43.543 0 92.031-16.844 102.2-54.465 2.0938-7.7852 9.6797-12.809 17.531-11.723 7.9727 1.0664 13.906 7.8672 13.906 15.914v37.52zm52.832-209.36c-1.9727 24.062-22.008 42.984-46.477 42.984-20.148 0-37.273-12.855-43.809-30.809h-37.211c-8.8438 0-16-7.2031-16-16.074 0-8.8711 7.1562-16.074 16-16.074h112.01c8.8438 0 16.008 7.2031 16.008 16.074-0.003907 1.3438-0.21484 2.6367-0.52344 3.8984z" fill="#fff"/>
</svg>
