<?xml version="1.0" encoding="UTF-8"?>
<svg width="1200pt" height="1200pt" version="1.1" viewBox="0 0 1200 1200" xmlns="http://www.w3.org/2000/svg">
 <path d="m1200 600c0 214.36-114.36 412.44-300 519.62-185.64 107.18-414.36 107.18-600 0-185.64-107.18-300-305.26-300-519.62s114.36-412.44 300-519.62c185.64-107.18 414.36-107.18 600 0 185.64 107.18 300 305.26 300 519.62" fill="#0f1729"/>
 <path d="m599.71 739.02c-9.7656 0-19.133-0.74219-28.172-1.9805v18.906c0 15.766 12.773 28.559 28.469 28.559 15.695 0 28.477-12.793 28.477-28.559v-19.059c-9.6055 1.4219-19.277 2.1328-28.746 2.1328h-0.027344z" fill="#fff"/>
 <path d="m600 241.04c-150.02 0-272.06 117.76-272.06 262.53v387.89c0 37.234 30.152 67.516 67.227 67.516 37.047 0 67.207-30.281 67.207-67.516v-29.996c0-19.512 15.793-35.383 35.195-35.383 19.414 0 35.207 15.871 35.207 35.383v29.996c0 37.234 30.152 67.516 67.227 67.516 37.074 0 67.227-30.281 67.227-67.516v-29.996c0-19.512 15.793-35.383 35.199-35.383s35.199 15.871 35.199 35.383v29.996c0 37.234 30.152 67.516 67.207 67.516 37.07-0.003906 67.223-30.285 67.223-67.52v-387.88c0-144.77-122.03-262.53-272.06-262.53zm-149.82 330.29-15.07-28.379 53.535-28.656-53.551-28.695c-7.793-4.1875-10.738-13.914-6.5898-21.742 4.1953-7.8516 13.859-10.801 21.652-6.6367l80.016 42.84c5.2305 2.8047 8.4883 8.2461 8.4883 14.191 0 5.918-3.2578 11.383-8.4648 14.184zm283.18 122.78c0 8.8711-7.1641 16.074-16 16.074-4.957 0-9.3711-2.2734-12.324-5.8281-12.469 10.926-27.922 19.035-44.566 24.719v26.895c0.007812 33.477-27.121 60.699-60.465 60.699s-60.473-27.227-60.473-60.699v-26.23c-17.516-5.8867-32.699-14.41-44.738-25.164-2.9414 3.4297-7.293 5.6055-12.145 5.6055-8.8359 0-16.008-7.2031-16.008-16.074l0.003906-37.5c0-8.0547 5.9414-14.863 13.906-15.922 7.875-1.0977 15.438 3.9375 17.539 11.723 6.8984 25.535 31.332 41.465 59.824 49.09 0.52734 0.082031 1.0586 0.089844 1.5781 0.21875 25.656 6.6133 55.266 6.5742 80.969-0.13672 0.6875-0.17188 1.3828-0.20312 2.0703-0.29297 28.355-7.707 52.543-23.57 59.383-48.887 2.0938-7.7773 9.7695-12.824 17.531-11.723 7.9727 1.0664 13.906 7.8672 13.906 15.922v37.512zm31.543-206.62-53.551 28.695 53.535 28.656-15.062 28.379-80.02-42.891c-5.1992-2.8047-8.457-8.2656-8.457-14.184 0-5.9492 3.2578-11.387 8.4883-14.191l80.016-42.84c2.3867-1.2773 4.957-1.8828 7.4961-1.8828 5.7344 0 11.262 3.082 14.156 8.5156 4.1445 7.8281 1.1992 17.555-6.6016 21.742z" fill="#fff"/>
</svg>
