<?xml version="1.0" encoding="UTF-8"?>
<svg width="1200pt" height="1200pt" version="1.1" viewBox="0 0 1200 1200" xmlns="http://www.w3.org/2000/svg">
 <path d="m1200 600c0 214.36-114.36 412.44-300 519.62-185.64 107.18-414.36 107.18-600 0-185.64-107.18-300-305.26-300-519.62s114.36-412.44 300-519.62c185.64-107.18 414.36-107.18 600 0 185.64 107.18 300 305.26 300 519.62" fill="#0f1729"/>
 <path d="m666.66 547.89c-4.3359 0-9.1914 6.7109-9.1914 15.695 0 1.2617 0.23438 2.4648 0.41797 3.6758 2.582 2.5039 5.5781 4.0312 8.7734 4.0312 3.1953 0 6.1914-1.5273 8.7734-4.0312 0.1875-1.2148 0.41797-2.418 0.41797-3.6758 0-8.9844-4.8555-15.695-9.1914-15.695z" fill="#fff"/>
 <path d="m533.35 547.89c-4.3359 0-9.1914 6.7109-9.1914 15.695 0 1.2695 0.23047 2.4648 0.41797 3.6758 2.582 2.5039 5.5781 4.0352 8.7734 4.0352 3.1953 0 6.1914-1.5312 8.7734-4.0352 0.1875-1.2109 0.41797-2.4102 0.41797-3.6719 0-8.9883-4.8516-15.699-9.1914-15.699z" fill="#fff"/>
 <path d="m600 286.45c-135.02 0-245.49 110.47-245.49 245.48v299.79c0 45.008 36.824 81.828 81.828 81.828s81.828-36.82 81.828-81.828c0 45.008 36.824 81.828 81.828 81.828 45.008 0 81.828-36.82 81.828-81.828 0 45.008 36.82 81.828 81.828 81.828 45.008 0 81.828-36.82 81.828-81.828v-24.426l0.007812-275.36c0-135.02-110.47-245.48-245.49-245.48zm-151.21 236.49c0-4.6367 3.7578-8.3984 8.3984-8.3984 69.93 0 85.145-43.41 85.762-45.258 1.4609-4.3789 6.2109-6.7773 10.57-5.3672 4.3906 1.4219 6.8164 6.1016 5.4219 10.5-0.35937 1.1328-4.9648 14.699-19.105 28.297 15.699 3.7656 27.238 20.961 27.238 42.273 0 24.16-14.812 43.086-33.723 43.086-18.914 0-33.727-18.926-33.727-43.086 0-7.6797 1.6289-14.723 4.2812-20.906-12.676 4.3633-27.965 7.25-46.711 7.25-4.6445 0.007812-8.4062-3.7539-8.4062-8.3906zm151.21 215.8c-66.734 0-121.03-54.297-121.03-121.04 0-4.6367 3.7578-8.3984 8.3984-8.3984 4.6367 0 8.3984 3.7578 8.3984 8.3984 0 57.477 46.762 104.24 104.24 104.24 57.477 0 104.24-46.766 104.24-104.24 0-4.6367 3.7578-8.3984 8.3984-8.3984 4.6367 0 8.3984 3.7578 8.3984 8.3984-0.003907 66.738-54.301 121.04-121.04 121.04zm142.82-207.41c-18.75 0-34.039-2.8906-46.711-7.2539 2.6523 6.1836 4.2812 13.223 4.2812 20.906 0 24.16-14.812 43.086-33.727 43.086-18.914 0-33.727-18.926-33.727-43.086 0-21.312 11.539-38.504 27.242-42.273-14.141-13.602-18.746-27.168-19.105-28.297-1.4023-4.418 1.043-9.1445 5.4609-10.547 4.3945-1.3906 9.1055 1.0195 10.527 5.418 0.64453 1.9297 15.898 45.25 85.762 45.25 4.6367 0 8.3984 3.7578 8.3984 8.3984-0.003906 4.6367-3.7656 8.3984-8.4023 8.3984z" fill="#fff"/>
 <path d="m549.61 538.25c-1.9805-11.09-8.5938-19.551-16.266-19.551-7.6797 0-14.293 8.4609-16.273 19.555 4.4375-4.4336 10.023-7.168 16.273-7.168 6.2461 0.003906 11.832 2.7383 16.266 7.1641z" fill="#fff"/>
 <path d="m666.66 518.71c-7.6797 0-14.293 8.4609-16.273 19.555 4.4375-4.4336 10.023-7.168 16.273-7.168 6.2461 0 11.836 2.7344 16.273 7.168-1.9805-11.094-8.5977-19.555-16.273-19.555z" fill="#fff"/>
</svg>
