<?xml version="1.0" encoding="UTF-8"?>
<svg width="1200pt" height="1200pt" version="1.1" viewBox="0 0 1200 1200" xmlns="http://www.w3.org/2000/svg">
 <path d="m1200 600c0 214.36-114.36 412.44-300 519.62-185.64 107.18-414.36 107.18-600 0-185.64-107.18-300-305.26-300-519.62s114.36-412.44 300-519.62c185.64-107.18 414.36-107.18 600 0 185.64 107.18 300 305.26 300 519.62" fill="#0f1729"/>
 <path d="m542.62 572.49c17.328 0 31.426-14.098 31.426-31.422v-38.383c0-17.328-14.102-31.422-31.426-31.422-17.328 0-31.422 14.098-31.422 31.422v38.383c0 17.324 14.098 31.422 31.422 31.422zm-25.668-50.613c0-14.152 11.516-25.668 25.672-25.668 14.152 0 25.672 11.512 25.672 25.668 0 4.6406-3.7578 8.3984-8.3984 8.3984-4.6367 0-8.3984-3.7539-8.3984-8.3984 0-4.8945-3.9805-8.8711-8.875-8.8711s-8.875 3.9766-8.875 8.8711c0 4.6406-3.7578 8.3984-8.3984 8.3984-4.6406 0-8.3984-3.7578-8.3984-8.3984z" fill="#fff"/>
 <path d="m657.39 572.49c17.328 0 31.422-14.098 31.422-31.422v-38.383c0-17.328-14.098-31.422-31.422-31.422-17.328 0-31.426 14.098-31.426 31.422v38.383c-0.003907 17.324 14.098 31.422 31.426 31.422zm0-76.277c14.152 0 25.672 11.512 25.672 25.668 0 14.152-11.516 25.668-25.672 25.668-14.152 0-25.672-11.512-25.672-25.668s11.516-25.668 25.672-25.668z" fill="#fff"/>
 <path d="m666.26 521.88c0 4.9023-3.9766 8.875-8.875 8.875-4.9023 0-8.875-3.9727-8.875-8.875 0-4.8984 3.9727-8.875 8.875-8.875 4.8984 0 8.875 3.9766 8.875 8.875" fill="#fff"/>
 <path d="m600 286.45c-135.02 0-245.49 110.47-245.49 245.48v299.79c0 45.008 36.824 81.828 81.828 81.828s81.828-36.82 81.828-81.828c0 45.008 36.824 81.828 81.828 81.828 45.008 0 81.828-36.82 81.828-81.828 0 45.008 36.82 81.828 81.828 81.828 45.008 0 81.828-36.82 81.828-81.828v-24.426l0.007812-275.36c0-135.02-110.47-245.48-245.49-245.48zm9.1641 216.23c0-26.586 21.633-48.215 48.219-48.215 26.586 0 48.215 21.633 48.215 48.215v38.383c0 26.586-21.633 48.215-48.215 48.215-26.59 0-48.219-21.633-48.219-48.215zm-114.76 0c0-26.586 21.633-48.215 48.215-48.215 26.59 0 48.219 21.633 48.219 48.215v38.383c0 26.586-21.633 48.215-48.219 48.215-26.586 0-48.215-21.633-48.215-48.215zm218.22 191.95c-1.5898 1.3945-3.5586 2.0742-5.5195 2.0742-2.3398 0-4.6641-0.97656-6.3281-2.8711l-28.93-33.113-25.082 28.707c-5.5469 6.3633-16.117 6.3633-21.68 0l-25.086-28.703-25.082 28.707c-5.5508 6.3633-16.121 6.3633-21.68 0l-25.078-28.707-28.93 33.113c-3.043 3.4766-8.3477 3.8555-11.844 0.79688-3.4922-3.0508-3.8516-8.3555-0.80078-11.848l30.734-35.18c5.5547-6.3633 16.125-6.3633 21.68 0l25.078 28.707 25.09-28.707c5.5547-6.3633 16.125-6.3633 21.68 0l25.078 28.707 25.09-28.707c5.5508-6.3633 16.121-6.3633 21.68 0l30.73 35.18c3.0508 3.4883 2.6914 8.793-0.80078 11.844z" fill="#fff"/>
</svg>
